<?xml version="1.0" standalone="no"?>
<!DOCTYPE svg PUBLIC "-//W3C//DTD SVG 20010904//EN"
 "http://www.w3.org/TR/2001/REC-SVG-20010904/DTD/svg10.dtd">
<svg version="1.0" xmlns="http://www.w3.org/2000/svg"
 width="259.000000pt" height="194.000000pt" viewBox="0 0 259.000000 194.000000"
 preserveAspectRatio="xMidYMid meet">
<metadata>
Created by potrace 1.15, written by Peter Selinger 2001-2017
</metadata>
<g transform="translate(0.000000,194.000000) scale(0.100000,-0.100000)"
fill="#000000" stroke="none">
<path d="M1145 1248 c-4 -13 -9 -27 -10 -33 -4 -27 -17 -55 -26 -55 -6 0 -22
-12 -36 -27 -15 -16 -23 -23 -20 -16 5 7 0 9 -14 6 -13 -4 -16 -8 -9 -13 17
-10 -6 -64 -25 -56 -8 3 -17 1 -20 -5 -12 -19 -27 4 -21 33 5 25 3 28 -13 23
-13 -4 -24 1 -34 15 -17 25 -27 16 -27 -25 0 -21 8 -39 25 -53 14 -12 25 -25
25 -30 0 -11 109 -76 117 -69 3 4 6 20 7 37 1 23 5 29 16 24 8 -3 20 -7 25 -8
6 -1 16 -5 23 -9 6 -5 12 -6 12 -3 0 3 -19 18 -42 33 -24 15 -45 28 -47 30 -2
1 9 16 23 34 33 39 71 113 81 157 8 37 1 43 -10 10z"/>
<path d="M1430 1227 c0 -10 48 -99 75 -141 16 -25 16 -26 -12 -52 -15 -15 -20
-21 -10 -14 14 10 17 10 17 -1 0 -8 6 -5 15 7 8 10 15 15 14 9 -2 -17 13 -55
22 -55 5 0 9 -7 9 -15 0 -8 5 -15 10 -15 17 0 11 52 -7 67 -17 13 -17 14 2 11
14 -2 21 -13 25 -36 3 -18 7 -34 10 -34 3 -1 20 7 38 17 36 21 44 46 12 38
-16 -4 -19 -2 -14 11 7 18 39 21 50 4 5 -7 11 -5 21 7 19 27 16 59 -7 86 l-20
24 9 -26 c11 -30 6 -39 -19 -39 -10 0 -29 -9 -43 -20 -30 -24 -45 -26 -27 -5
10 13 7 17 -23 30 -20 8 -40 15 -44 15 -5 0 -14 9 -21 20 -7 12 -17 18 -22 15
-6 -3 -10 0 -10 7 -1 14 -50 98 -50 85z"/>
<path d="M1330 723 c-12 -38 -24 -105 -27 -150 -6 -79 -4 -86 27 -149 17 -36
29 -68 26 -71 -3 -4 -6 -3 -6 2 0 4 -6 3 -12 -3 -21 -16 -73 -18 -96 -3 -11 7
-9 18 12 57 21 40 26 62 26 124 0 69 -29 213 -45 228 -4 4 -4 -4 0 -17 33
-109 22 -361 -16 -361 -5 0 -9 -7 -9 -15 0 -9 -7 -18 -15 -21 -8 -4 -15 -10
-15 -16 0 -15 -52 -59 -87 -74 -18 -8 -48 -14 -68 -14 -19 0 -35 -4 -35 -10 0
-23 87 -9 262 40 41 12 58 11 159 -10 62 -13 133 -23 158 -23 178 3 280 2 308
-3 36 -7 73 2 73 17 0 6 -12 8 -28 4 -20 -4 -33 -1 -42 10 -7 8 -17 15 -22 15
-5 0 -16 7 -25 15 -16 17 -103 19 -103 3 0 -5 -4 -6 -10 -3 -5 3 -10 1 -10 -5
0 -6 -4 -9 -9 -6 -10 6 -91 -24 -91 -34 0 -16 -108 8 -146 32 -38 25 -104 106
-104 129 0 5 -4 9 -8 9 -5 0 -9 6 -10 13 -12 178 -12 188 12 330 8 47 -2 30
-24 -40z"/>
</g>
</svg>
