<?xml version="1.0" standalone="no"?>
<!DOCTYPE svg PUBLIC "-//W3C//DTD SVG 20010904//EN"
 "http://www.w3.org/TR/2001/REC-SVG-20010904/DTD/svg10.dtd">
<svg version="1.0" xmlns="http://www.w3.org/2000/svg"
 width="225.000000pt" height="225.000000pt" viewBox="0 0 225.000000 225.000000"
 preserveAspectRatio="xMidYMid meet">
<metadata>
Created by potrace 1.15, written by Peter Selinger 2001-2017
</metadata>
<g transform="translate(0.000000,225.000000) scale(0.100000,-0.100000)"
fill="#000000" stroke="none">
<path d="M1552 1968 c-28 -28 -13 -62 60 -135 l73 -73 -82 -82 -82 -82 -80 77
c-43 42 -85 77 -93 77 -24 0 -58 -44 -58 -76 1 -16 7 -40 15 -54 13 -25 9 -30
-317 -357 l-330 -332 25 -44 26 -44 -55 -54 c-45 -44 -54 -58 -49 -78 4 -16
-1 -31 -16 -47 -12 -13 -19 -24 -14 -24 5 0 -4 -13 -19 -29 -21 -22 -26 -35
-21 -51 6 -19 -13 -42 -126 -156 -74 -74 -127 -134 -119 -134 9 0 71 56 140
126 101 101 129 124 148 121 17 -3 29 3 44 24 12 15 25 26 30 23 5 -4 20 4 32
15 13 12 29 19 37 16 9 -3 36 17 69 50 30 30 59 55 65 55 5 0 21 -9 35 -20 14
-11 32 -20 41 -20 9 0 163 150 342 334 l326 333 46 -15 c44 -14 47 -14 70 8
39 37 32 58 -50 140 l-75 75 80 80 79 79 80 -78 c59 -57 86 -77 102 -74 29 4
43 29 36 59 -9 33 -358 379 -383 379 -11 0 -25 -5 -32 -12z m-86 -707 l-103
-103 -159 11 c-224 17 -213 11 -150 71 29 28 57 50 61 50 5 0 30 -23 56 -51
44 -47 69 -56 69 -25 0 7 -22 36 -50 63 l-49 50 34 33 c39 38 42 37 105 -33
32 -35 37 -38 49 -24 11 14 6 24 -38 69 l-50 53 67 68 67 67 97 -97 98 -98
-104 -104z"/>
</g>
</svg>
